<mxfile host="app.diagrams.net" modified="2021-08-28T19:15:09.404Z" agent="5.0 (Macintosh; Intel Mac OS X 10_15_7) AppleWebKit/537.36 (KHTML, like Gecko) Chrome/92.0.4515.159 Safari/537.36" etag="2hEM8u86zFUZFwCHEUtk" version="14.9.6" type="github">
  <diagram id="BrFPjxszz-oEf6XLC-oA" name="Page-1">
    <mxGraphModel dx="1298" dy="764" grid="1" gridSize="10" guides="1" tooltips="1" connect="1" arrows="1" fold="1" page="1" pageScale="1" pageWidth="850" pageHeight="1100" math="0" shadow="0">
      <root>
        <mxCell id="0" />
        <mxCell id="1" parent="0" />
        <mxCell id="DCnP1Qfjo5gr4v71ElpY-2" value="BLK1" style="whiteSpace=wrap;html=1;aspect=fixed;" parent="1" vertex="1">
          <mxGeometry x="150" y="310" width="80" height="80" as="geometry" />
        </mxCell>
        <mxCell id="DCnP1Qfjo5gr4v71ElpY-3" value="BLK2" style="whiteSpace=wrap;html=1;aspect=fixed;" parent="1" vertex="1">
          <mxGeometry x="311" y="310" width="80" height="80" as="geometry" />
        </mxCell>
        <mxCell id="DCnP1Qfjo5gr4v71ElpY-4" value="BLK3" style="whiteSpace=wrap;html=1;aspect=fixed;" parent="1" vertex="1">
          <mxGeometry x="460" y="310" width="80" height="80" as="geometry" />
        </mxCell>
        <mxCell id="WQq1zOE2vJdBpu4I0Uv1-1" value="Haproxy" style="rounded=1;whiteSpace=wrap;html=1;" vertex="1" parent="1">
          <mxGeometry x="280" y="180" width="130" height="60" as="geometry" />
        </mxCell>
        <mxCell id="WQq1zOE2vJdBpu4I0Uv1-2" value="" style="endArrow=classic;html=1;entryX=0.5;entryY=0;entryDx=0;entryDy=0;" edge="1" parent="1" source="WQq1zOE2vJdBpu4I0Uv1-1" target="DCnP1Qfjo5gr4v71ElpY-2">
          <mxGeometry width="50" height="50" relative="1" as="geometry">
            <mxPoint x="220" y="270" as="sourcePoint" />
            <mxPoint x="260" y="330" as="targetPoint" />
          </mxGeometry>
        </mxCell>
        <mxCell id="WQq1zOE2vJdBpu4I0Uv1-3" value="" style="endArrow=classic;html=1;entryX=0.413;entryY=-0.062;entryDx=0;entryDy=0;entryPerimeter=0;" edge="1" parent="1" source="WQq1zOE2vJdBpu4I0Uv1-1" target="DCnP1Qfjo5gr4v71ElpY-3">
          <mxGeometry width="50" height="50" relative="1" as="geometry">
            <mxPoint x="312" y="250" as="sourcePoint" />
            <mxPoint x="200" y="320" as="targetPoint" />
          </mxGeometry>
        </mxCell>
        <mxCell id="WQq1zOE2vJdBpu4I0Uv1-4" value="" style="endArrow=classic;html=1;exitX=0.877;exitY=1.033;exitDx=0;exitDy=0;exitPerimeter=0;entryX=0.5;entryY=0;entryDx=0;entryDy=0;" edge="1" parent="1" source="WQq1zOE2vJdBpu4I0Uv1-1" target="DCnP1Qfjo5gr4v71ElpY-4">
          <mxGeometry width="50" height="50" relative="1" as="geometry">
            <mxPoint x="490" y="250" as="sourcePoint" />
            <mxPoint x="540" y="200" as="targetPoint" />
          </mxGeometry>
        </mxCell>
      </root>
    </mxGraphModel>
  </diagram>
</mxfile>
